<?xml version="1.0" standalone="no"?>
<!DOCTYPE svg PUBLIC "-//W3C//DTD SVG 20010904//EN"
 "http://www.w3.org/TR/2001/REC-SVG-20010904/DTD/svg10.dtd">
<svg version="1.0" xmlns="http://www.w3.org/2000/svg"
 width="1080.000000pt" height="1080.000000pt" viewBox="0 0 1080.000000 1080.000000"
 preserveAspectRatio="xMidYMid meet">

<g transform="translate(0.000000,1080.000000) scale(0.100000,-0.100000)"
fill="#f1f1f1" stroke="none">
<path d="M5265 10252 c-44 -15 -3816 -2202 -3922 -2274 -68 -46 -111 -96 -151
-177 l-37 -75 0 -2325 0 -2326 27 -58 c43 -90 86 -144 157 -191 90 -61 3844
-2244 3901 -2269 68 -29 208 -34 285 -9 38 12 759 425 2005 1150 1723 1003
1951 1138 1996 1186 63 67 100 140 114 226 13 84 14 4487 0 4579 -12 83 -50
160 -114 227 -45 48 -272 183 -1996 1185 -1070 623 -1969 1140 -1999 1150 -70
25 -197 25 -266 1z m1593 -1339 c790 -460 1629 -948 1865 -1085 l427 -250 0
-2178 0 -2178 -307 -180 c-1259 -733 -3425 -1993 -3435 -1997 -7 -3 -854 485
-1883 1084 l-1870 1088 0 2183 0 2183 1870 1089 c1029 598 1876 1086 1883
1083 8 -3 660 -381 1450 -842z"/>
<path d="M5248 8796 c-46 -24 -679 -388 -1408 -809 -839 -485 -1339 -780
-1364 -804 -22 -21 -50 -60 -62 -88 l-23 -50 -2 -1630 c-1 -1172 2 -1641 10
-1671 13 -50 58 -113 103 -147 26 -19 2692 -1561 2798 -1618 15 -8 57 -13 105
-13 64 0 89 4 125 23 25 13 657 377 1405 809 890 513 1374 798 1402 825 23 22
52 63 65 91 l23 51 0 1640 0 1640 -21 45 c-47 100 -23 85 -1478 925 -759 438
-1398 803 -1420 810 -23 8 -71 15 -108 15 -61 0 -76 -5 -150 -44z m-1157
-3070 c824 -475 876 -507 907 -551 l32 -47 0 -1024 0 -1024 -25 -16 c-14 -9
-35 -14 -48 -12 -32 6 -1725 984 -1761 1017 -59 54 -56 1 -56 1106 0 1002 0
1015 20 1035 11 11 28 20 39 20 10 0 412 -227 892 -504z m3560 485 l24 -19 -1
-1019 0 -1019 -23 -40 c-12 -22 -43 -54 -69 -71 -118 -79 -1715 -993 -1735
-993 -28 0 -41 9 -56 37 -16 30 -16 1975 0 2038 6 25 25 58 43 77 29 29 425
262 1475 865 156 90 292 163 301 163 10 0 28 -9 41 -19z"/>
</g>
</svg>
